<svg width="152" height="19" viewBox="0 0 152 19" fill="none" xmlns="http://www.w3.org/2000/svg">
<path fill-rule="evenodd" clip-rule="evenodd" d="M0 18.1847H25.0048L12.8898 0L0 18.1847Z" fill="#FDB812"/>
<path fill-rule="evenodd" clip-rule="evenodd" d="M2.94067 18.1847H27.9524L15.8305 0L2.94067 18.1847Z" fill="#00A650"/>
<path d="M32.7397 9.81055C32.7879 9.84478 32.7947 9.84478 32.7397 9.81055V9.81055Z" fill="#003D7C"/>
<path d="M42.9455 6.32137H39.8804C39.6936 6.08491 39.4791 5.86575 39.2439 5.66389H41.0705V3.87022H37.1613V2.68213H34.3799V3.87022H30.4639V5.66389H32.2628C31.3772 6.40789 30.8237 7.43449 30.8237 8.5649C30.8237 10.8315 33.0377 12.6771 35.7637 12.6771C37.3896 12.6771 38.8218 12.0196 39.7213 11.0103H42.9593V14.4419H45.7476V3.13776H42.9593V6.32137H42.9455ZM35.743 10.6758C34.3315 10.6758 33.1761 9.71838 33.1761 8.54183C33.1761 7.36528 34.3315 6.40212 35.743 6.40212C37.1544 6.40212 38.3098 7.35951 38.3098 8.54183C38.3098 9.71838 37.1613 10.6758 35.743 10.6758ZM40.6138 9.22238C40.6553 9.00899 40.683 8.78984 40.683 8.57068C40.683 8.41496 40.6761 8.265 40.6553 8.11505H42.9524V9.22238H40.6138Z" fill="#003D7C"/>
<path d="M35.0849 13.5308H32.2966V18.1505H45.7331V16.3626H35.0849V13.5308Z" fill="#003D7C"/>
<path d="M61.2244 7.63636H59.6677V3.14355H56.8863V12.6598H51.3996V5.24866H55.1635V3.46076H48.6113V14.4477H56.8863V18.1504H59.6677V9.42427H61.2244V18.1504H64.0127V3.14355H61.2244V7.63636Z" fill="#003D7C"/>
<path d="M138.813 15.0301C138.813 16.8584 141.767 18.3464 145.406 18.3464C149.046 18.3464 152 16.8584 152 15.0301C152 13.2019 149.046 11.7139 145.406 11.7139C141.774 11.7139 138.813 13.2019 138.813 15.0301ZM141.746 15.0301C141.746 14.1766 143.386 13.4845 145.406 13.4845C147.427 13.4845 149.066 14.1708 149.066 15.0301C149.066 15.8837 147.427 16.5758 145.406 16.5758C143.386 16.5758 141.746 15.8837 141.746 15.0301Z" fill="#003D7C"/>
<path d="M90.7547 5.23697C90.7547 5.23697 90.215 9.799 95.0929 12.8615L93.543 14.436C93.543 14.436 90.4157 12.6481 89.3709 9.22224C89.3709 9.22224 89.0319 11.6042 85.2058 14.4187L83.6628 12.9019C83.6628 12.9019 87.9733 10.6814 87.9733 5.23697H84.4931V3.40869H94.062V5.23697H90.7547Z" fill="#003D7C"/>
<path d="M99.3757 3.14355H96.5874V18.1504H99.3757V3.14355Z" fill="#003D7C"/>
<path d="M114.223 3.14355V12.6425H105.07V3.40308H102.281V14.4304H114.223V18.1504H117.012V3.14355H114.223Z" fill="#003D7C"/>
<path d="M149.066 8.93984V3.14355H151.862V11.714H149.066V10.8777L136.855 10.8835V6.17147H143.338V5.34673H136.855V3.40308H145.891V8.10932H139.138V8.93984H149.066Z" fill="#003D7C"/>
<path d="M131.16 3.14355V7.59023H128.856C128.711 6.28103 128.303 5.3121 127.701 4.60271C126.912 3.67992 125.66 3.14355 123.896 3.14355C122.117 3.14355 120.796 3.61071 119.959 4.52773C119.129 5.44475 118.713 6.88084 118.713 8.79562C118.713 10.7046 119.135 12.1407 119.959 13.052C120.796 13.969 122.117 14.4304 123.896 14.4304C125.66 14.4304 126.954 13.9632 127.742 13.052C128.434 12.2561 128.822 11.0334 128.905 9.42427L131.16 9.43004V18.1561H133.969V3.14931H131.16V3.14355ZM125.916 11.3218C125.355 12.1465 124.843 12.3195 123.875 12.3195C122.92 12.3195 122.207 12.1177 121.709 11.3275C121.439 10.9007 121.17 9.58 121.17 8.78409C121.17 7.97665 121.183 7.04233 121.716 6.22336C122.214 5.46206 122.913 5.24289 123.903 5.24289C124.878 5.24289 125.473 5.51973 125.923 6.22336C126.469 7.0654 126.449 7.97665 126.449 8.77832C126.449 9.58576 126.407 10.6066 125.916 11.3218Z" fill="#003D7C"/>
<path d="M81.9666 3.14355H79.4136V14.4304H81.9666V3.14355Z" fill="#003D7C"/>
<path d="M71.3183 13.5308H68.53V18.1505H81.9595V16.3626H71.3183V13.5308Z" fill="#003D7C"/>
<path d="M76.1829 3.14355V6.2868H75.3665C74.8545 4.48159 72.9241 3.14355 70.6063 3.14355C67.908 3.14355 65.7078 4.97184 65.7078 7.22114C65.7078 9.47621 67.9011 11.2987 70.6063 11.2987C72.9657 11.2987 74.9444 9.90299 75.4011 8.05164H76.1829V14.4304H78.736V3.14355H76.1829ZM70.5994 9.33201C69.2018 9.33201 68.074 8.3804 68.074 7.22114C68.074 6.06189 69.2018 5.11026 70.5994 5.11026C71.997 5.11026 73.1248 6.06189 73.1248 7.22114C73.1317 8.3804 71.997 9.33201 70.5994 9.33201Z" fill="#003D7C"/>
</svg>
