<svg width="182" height="22" viewBox="0 0 182 22" fill="none" xmlns="http://www.w3.org/2000/svg">
<path fill-rule="evenodd" clip-rule="evenodd" d="M0 21.7737H29.9399L15.4339 0L0 21.7737Z" fill="#FDB812"/>
<path fill-rule="evenodd" clip-rule="evenodd" d="M3.521 21.7737H33.4692L18.9549 0L3.521 21.7737Z" fill="#00A650"/>
<path d="M39.2014 11.7461C39.2587 11.7869 39.2669 11.7869 39.2014 11.7461V11.7461Z" fill="#003D7C"/>
<path d="M51.4214 7.56845H47.7514C47.5277 7.28531 47.2709 7.02291 46.9892 6.78121H49.1763V4.63352H44.4957V3.21094H41.1653V4.63352H36.4763V6.78121H38.6303C37.5699 7.67205 36.9071 8.90126 36.9071 10.2548C36.9071 12.9687 39.5581 15.1786 42.8222 15.1786C44.769 15.1786 46.4839 14.3913 47.5609 13.1828H51.438V17.2917H54.7766V3.7565H51.438V7.56845H51.4214ZM42.7973 12.7823C41.1073 12.7823 39.7238 11.6359 39.7238 10.2272C39.7238 8.81839 41.1073 7.66514 42.7973 7.66514C44.4874 7.66514 45.8708 8.81148 45.8708 10.2272C45.8708 11.6359 44.4956 12.7823 42.7973 12.7823ZM48.6296 11.042C48.6793 10.7865 48.7124 10.5241 48.7124 10.2617C48.7124 10.0752 48.7041 9.89569 48.6793 9.71614H51.4297V11.042H48.6296Z" fill="#003D7C"/>
<path d="M42.0093 16.1992H38.6707V21.7307H54.759V19.5899H42.0093V16.1992Z" fill="#003D7C"/>
<path d="M73.3081 9.14127H71.4441V3.76172H68.1137V15.1562H61.5442V6.28231H66.0509V4.14153H58.2056V17.297H68.1137V21.7304H71.4441V11.282H73.3081V21.7304H76.6467V3.76172H73.3081V9.14127Z" fill="#003D7C"/>
<path d="M166.21 17.9942C166.21 20.1834 169.747 21.965 174.105 21.965C178.462 21.965 182 20.1834 182 17.9942C182 15.8051 178.462 14.0234 174.105 14.0234C169.755 14.0234 166.21 15.8051 166.21 17.9942ZM169.722 17.9942C169.722 16.9722 171.686 16.1435 174.105 16.1435C176.524 16.1435 178.487 16.9653 178.487 17.9942C178.487 19.0163 176.524 19.845 174.105 19.845C171.686 19.845 169.722 19.0163 169.722 17.9942Z" fill="#003D7C"/>
<path d="M108.667 6.27116C108.667 6.27116 108.02 11.7336 113.861 15.4005L112.005 17.2858C112.005 17.2858 108.261 15.145 107.01 11.043C107.01 11.043 106.604 13.8951 102.022 17.2651L100.175 15.4488C100.175 15.4488 105.336 12.7902 105.336 6.27116H101.169V4.08203H112.627V6.27116H108.667Z" fill="#003D7C"/>
<path d="M118.989 3.76172H115.65V21.7304H118.989V3.76172Z" fill="#003D7C"/>
<path d="M136.767 3.76172V15.1355H125.807V4.07246H122.468V17.2762H136.767V21.7304H140.106V3.76172H136.767Z" fill="#003D7C"/>
<path d="M178.487 10.702V3.76172H181.834V14.0237H178.487V13.0224L163.865 13.0292V7.38725H171.628V6.39973H163.865V4.07247H174.685V9.70757H166.599V10.702H178.487Z" fill="#003D7C"/>
<path d="M157.047 3.76172V9.08603H154.289C154.115 7.51843 153.626 6.35827 152.905 5.50887C151.961 4.40395 150.461 3.76172 148.349 3.76172C146.219 3.76172 144.637 4.32108 143.635 5.41909C142.641 6.5171 142.144 8.23662 142.144 10.5293C142.144 12.8151 142.649 14.5346 143.635 15.6258C144.637 16.7238 146.219 17.2762 148.349 17.2762C150.461 17.2762 152.01 16.7169 152.955 15.6258C153.783 14.6728 154.247 13.2087 154.346 11.282L157.047 11.289V21.7373H160.411V3.76861H157.047V3.76172ZM150.768 13.554C150.097 14.5416 149.484 14.7487 148.324 14.7487C147.18 14.7487 146.327 14.507 145.731 13.5609C145.408 13.0499 145.085 11.4685 145.085 10.5155C145.085 9.54872 145.101 8.42999 145.739 7.44937C146.335 6.53782 147.172 6.27539 148.357 6.27539C149.525 6.27539 150.237 6.60688 150.776 7.44937C151.43 8.45761 151.406 9.54871 151.406 10.5086C151.406 11.4754 151.356 12.6977 150.768 13.554Z" fill="#003D7C"/>
<path d="M98.1441 3.76172H95.0872V17.2763H98.1441V3.76172Z" fill="#003D7C"/>
<path d="M85.3943 16.1953H82.0557V21.7268H98.1357V19.586H85.3943V16.1953Z" fill="#003D7C"/>
<path d="M91.2189 3.76172V7.52534H90.2413C89.6283 5.36384 87.3169 3.76172 84.5417 3.76172C81.3107 3.76172 78.6763 5.95085 78.6763 8.64409C78.6763 11.3442 81.3024 13.5264 84.5417 13.5264C87.3666 13.5264 89.736 11.8553 90.2827 9.6385H91.2189V17.2763H94.2758V3.76172H91.2189ZM84.5334 11.1716C82.8599 11.1716 81.5096 10.0322 81.5096 8.64409C81.5096 7.25604 82.8599 6.11658 84.5334 6.11658C86.2068 6.11658 87.5572 7.25604 87.5572 8.64409C87.5655 10.0322 86.2068 11.1716 84.5334 11.1716Z" fill="#003D7C"/>
</svg>
