<svg width="120" height="21" viewBox="0 0 120 21" fill="none" xmlns="http://www.w3.org/2000/svg">
<g clip-path="url(#clip0_92_2207)">
<path d="M39.2486 6.02333H33.1554V0.934814H30.3012V13.976H33.1554V8.57759H39.2486V13.976H42.1078V0.934814H39.2486V6.02333Z" fill="white"/>
<path d="M101.34 1.6796C100.741 2.29442 100.716 3.18916 100.701 3.70901V13.976H103.555V9.81222H109.618V13.976H112.482V0.934814H103.57C102.73 0.944812 101.935 1.06478 101.34 1.6796ZM104.285 3.48407H109.623V7.27297H103.56V4.22885C103.57 4.0789 103.54 3.80898 103.665 3.64902C103.8 3.47407 104.015 3.48907 104.285 3.48407Z" fill="white"/>
<path d="M81.1164 0.934814H72.184V13.976H75.0432V3.48407H80.4066C80.6715 3.49407 80.8915 3.47907 81.0214 3.64902C81.1514 3.80898 81.1264 4.0789 81.1364 4.22885V13.976H83.9906V3.70901C83.9756 3.18916 83.9556 2.28942 83.3558 1.6796C82.7559 1.06478 81.9662 0.944812 81.1164 0.934814Z" fill="white"/>
<path d="M66.8005 10.682C66.7905 10.8319 66.8155 11.0969 66.6906 11.2618C66.5556 11.4368 66.3357 11.4168 66.0707 11.4268H60.7123V0.934814H57.8531V13.976H66.7805C67.6303 13.971 68.4251 13.8411 69.0199 13.2312C69.6247 12.6214 69.6447 11.7267 69.6597 11.2018V0.934814H66.8005V10.682Z" fill="white"/>
<path d="M98.3314 3.70901C98.3164 3.18916 98.2914 2.28942 97.6965 1.6796C97.1017 1.06478 96.3069 0.944812 95.4622 0.934814H89.394H86.5398V13.976H95.4672C96.3169 13.971 97.1067 13.8411 97.7015 13.2312C98.3014 12.6214 98.3214 11.7267 98.3363 11.2018V3.70901H98.3314ZM95.4822 10.682C95.4722 10.8319 95.4972 11.0969 95.3722 11.2618C95.2373 11.4368 95.0173 11.4168 94.7524 11.4268H89.389V3.48407H94.7524C95.0223 3.49407 95.2373 3.47907 95.3722 3.64902C95.4972 3.80898 95.4722 4.0789 95.4822 4.22885V10.682Z" fill="white"/>
<path d="M49.9805 6.63815L46.5165 0.934814H43.1175L48.4509 9.15742V13.976H51.51V9.15742L56.8435 0.934814H53.4445L49.9805 6.63815Z" fill="white"/>
<path d="M118.4 0.934814H115.351V13.976H118.4V0.934814Z" fill="white"/>
<path d="M47.5512 15.5505H46.4615V20.4491H47.5512V15.5505Z" fill="white"/>
<path d="M71.0793 15.5505H69.9846V20.4491H71.0793V15.5505Z" fill="white"/>
<path d="M105.379 15.5505H104.315V19.4694V20.4541H105.379H107.909V19.4694H105.379V15.5505Z" fill="white"/>
<path d="M38.7337 18.9845L36.5143 15.5605H35.4097V20.4541H36.4394V17.1051L38.6637 20.4541H39.7584V15.5605H38.7337V18.9845Z" fill="white"/>
<path d="M52.0199 18.9845L49.7955 15.5505H48.6909V20.4541H49.7206V17.1001L51.9499 20.4541H53.0446V15.5505H52.0199V18.9845Z" fill="white"/>
<path d="M75.543 18.9845L73.3187 15.5505H72.214V20.4541H73.2437V17.1001L75.468 20.4541H76.5677V15.5505H75.543V18.9845Z" fill="white"/>
<path d="M87.1196 16.6452V19.3744C87.1196 20.0992 87.4795 20.4591 88.2043 20.4591H91.1185V19.5043H88.4942C88.3043 19.5043 88.2093 19.4094 88.2093 19.2194V16.7951C88.2093 16.6152 88.3043 16.5252 88.4842 16.5252H91.1185V15.5655H88.2043C87.4795 15.5605 87.1196 15.9204 87.1196 16.6452Z" fill="white"/>
<path d="M117.376 15.5505H114.102V20.4541H117.376C118.101 20.4541 118.46 20.1042 118.46 19.4044V16.5952C118.46 15.8954 118.101 15.5505 117.376 15.5505ZM117.396 19.2195C117.396 19.4044 117.301 19.4944 117.111 19.4944H115.171V16.5103H117.121C117.306 16.5103 117.396 16.6002 117.396 16.7852V19.2195Z" fill="white"/>
<path d="M30.2412 15.5605V16.5053V19.5194V20.4541H31.3109H34.275V19.5194H31.3109V18.4797H33.8901V17.56H31.3109V16.5053H34.275V15.5605H31.3109H30.2412Z" fill="white"/>
<path d="M54.1842 15.5505V16.4953V19.5144V20.4541H55.2589H58.223V19.5144H55.2589V18.4747H57.8381V17.555H55.2589V16.4953H58.223V15.5505H55.2589H54.1842Z" fill="white"/>
<path d="M59.3627 15.5505V16.4953V19.5144V20.4541H60.4324H63.4015V19.5144H60.4324V18.4747H63.0167V17.555H60.4324V16.4953H63.4015V15.5505H60.4324H59.3627Z" fill="white"/>
<path d="M43.0325 18.4596H44.3021V19.2144C44.3021 19.4043 44.2071 19.4943 44.0222 19.4943H42.2727C42.0827 19.4943 41.9928 19.3993 41.9928 19.2144V16.7951C41.9928 16.6151 42.0827 16.5252 42.2677 16.5252H45.1518V15.5654H41.9878C41.268 15.5654 40.9081 15.9253 40.9081 16.6451V19.3693C40.9081 20.0891 41.268 20.449 41.9878 20.449H44.2621C44.9769 20.444 45.3318 20.0841 45.3318 19.3693V17.5449H43.0375V18.4596H43.0325Z" fill="white"/>
<path d="M79.8468 18.4596H81.1164V19.2194C81.1164 19.4093 81.0214 19.5043 80.8365 19.5043H79.087C78.8971 19.5043 78.8071 19.4093 78.8071 19.2194V16.7951C78.8071 16.6151 78.8971 16.5252 79.082 16.5252H81.9662V15.5654H78.7971C78.0723 15.5654 77.7124 15.9253 77.7124 16.6501V19.3743C77.7124 20.0991 78.0723 20.459 78.7971 20.459H81.0714C81.7912 20.454 82.1461 20.0941 82.1461 19.3743V17.5449H79.8518V18.4596H79.8468Z" fill="white"/>
<path d="M95.6571 15.5505H93.3428C92.618 15.5505 92.2581 15.9104 92.2581 16.6352V19.3644C92.2581 20.0892 92.618 20.4491 93.3428 20.4491H95.6571C96.3819 20.4491 96.7418 20.0892 96.7418 19.3644V16.6352C96.7418 15.9104 96.3769 15.5505 95.6571 15.5505ZM95.6621 19.2145C95.6621 19.4044 95.5672 19.4944 95.3772 19.4944H93.6177C93.4278 19.4944 93.3328 19.3994 93.3328 19.2145V16.7852C93.3328 16.6052 93.4228 16.5153 93.6077 16.5153H95.3822C95.5672 16.5153 95.6621 16.6052 95.6621 16.7852V19.2145Z" fill="white"/>
<path d="M68.8299 17.8348V16.6401C68.8299 15.9153 68.465 15.5554 67.7453 15.5554H64.5412V20.454H65.6209V18.9194H67.1005L68.0802 20.454H69.1898L68.1801 18.8595C68.61 18.7345 68.8299 18.3946 68.8299 17.8348ZM65.6159 16.5151H67.4853C67.6703 16.5151 67.7603 16.6051 67.7603 16.7851V17.7048C67.7603 17.8947 67.6653 17.9897 67.4803 17.9897H65.6159V16.5151Z" fill="white"/>
<path d="M108.508 15.5505V16.5353H110.198V20.4541H110.733H111.278V16.5353H112.967V15.5505H110.733H108.508Z" fill="white"/>
<path d="M98.1014 19.8242H97.3116V20.454H98.1014V19.8242Z" fill="white"/>
<path d="M120 19.8242H119.21V20.454H120V19.8242Z" fill="white"/>
<path d="M98.5563 20.449H98.8862L98.5713 20.9389H98.9062L99.351 20.404V19.8242H98.5563V20.449Z" fill="white"/>
<path fill-rule="evenodd" clip-rule="evenodd" d="M0 20.449H23.4332L12.0765 0L0 20.449Z" fill="#FDBB30"/>
<path fill-rule="evenodd" clip-rule="evenodd" d="M2.75922 20.449H26.1924L14.8357 0L2.75922 20.449Z" fill="#00A94F"/>
</g>
<defs>
<clipPath id="clip0_92_2207">
<rect width="120" height="20.9389" fill="white"/>
</clipPath>
</defs>
</svg>
