<svg width="176" height="77" viewBox="0 0 176 77" fill="none" xmlns="http://www.w3.org/2000/svg">
<path fill-rule="evenodd" clip-rule="evenodd" d="M51.3196 19.643L44.1441 7.04129C41.9989 3.27381 38.0247 0.947267 33.7343 0.947266L19.3834 0.947266C15.1314 0.947265 11.214 3.23262 9.09903 6.947L1.9057 19.5801C-0.209275 23.2945 -0.202498 27.8771 1.92347 31.6108L9.09893 44.2125C11.2441 47.98 15.2184 50.3065 19.5088 50.3065H33.8597C38.1117 50.3065 42.0291 48.0212 44.144 44.3068L45.8142 41.3735L51.7347 44.8394C53.1645 45.6765 54.9883 45.1878 55.8081 43.748L57.0545 41.559C57.8744 40.1192 57.3798 38.2735 55.95 37.4364L50.0295 33.9705L51.3374 31.6737C53.4523 27.9593 53.4456 23.3767 51.3196 19.643ZM42.2626 29.4237L43.5704 27.1268C44.0991 26.1982 44.0974 25.0526 43.5659 24.1192L36.3905 11.5174C35.8542 10.5756 34.8606 9.99393 33.788 9.99393L19.4371 9.99393C18.3741 9.99393 17.3948 10.5653 16.866 11.4939L9.67268 24.127C9.14394 25.0556 9.14564 26.2012 9.67713 27.1346L16.8526 39.7364C17.3889 40.6782 18.3825 41.2599 19.4551 41.2599H33.806C34.869 41.2599 35.8483 40.6885 36.3771 39.7599L38.0473 36.8267L45.8142 41.3735L50.0295 33.9705L42.2626 29.4237ZM42.2626 29.4237L34.844 25.0808C33.4141 24.2437 31.5904 24.7324 30.7706 26.1722L29.5242 28.3612C28.7043 29.801 29.1989 31.6467 30.6287 32.4838L38.0473 36.8267L42.2626 29.4237Z" fill="#004182"/>
<path d="M65.9062 44.4017H74.1819V27.7736H91.5056V44.4017H99.8364V4.27251H91.5056V20.9006H74.1819V4.27251H65.9062V44.4017Z" fill="#004182"/>
<path d="M104.579 44.4017H112.744V14.3048H104.579V44.4017ZM104.193 6.21246C104.193 8.48497 106.206 10.3695 108.661 10.3695C111.089 10.3695 113.103 8.48497 113.075 6.21246C113.103 3.88452 111.089 2.02771 108.661 2C106.206 2.02771 104.193 3.88452 104.193 6.21246Z" fill="#004182"/>
<path d="M131.875 24.6142H117.816V31.1546H131.875V24.6142Z" fill="#004182"/>
<path d="M153.074 31.1836L158.615 38.4584C157.853 38.6351 157.032 38.7234 156.182 38.7234C149.586 38.694 145.276 33.7459 145.276 24.6451C145.276 15.5148 149.586 10.5962 156.182 10.5668C162.72 10.5962 167.058 15.5148 167.029 24.6451C167.058 29.3575 165.886 32.9802 163.863 35.3364L160.638 31.1836H153.074ZM136.305 24.6451C136.305 38.5173 144.866 46.5578 156.182 46.5578C158.82 46.5578 161.342 46.116 163.628 45.2619L167.029 48.6979H175.296L169.257 41.8454C173.42 38.1049 176 32.2733 176 24.6451C176 10.714 167.41 2.73239 156.182 2.73239C144.866 2.73239 136.305 10.714 136.305 24.6451Z" fill="#004182"/>
<path d="M7.2085 61.8062V59.8205H11.5069V57.6768H13.8364V59.8205H18.1349V61.8062H7.2085ZM17.5063 68.8499V66.8445H19.9559V64.9872H17.5063V62.9818H19.9559V57.9435H22.2669V71.7247H19.9559V68.8499H17.5063ZM12.6994 69.8971C11.3375 69.8971 10.2621 69.5645 9.47327 68.8993C8.68445 68.2275 8.29004 67.3549 8.29004 66.2814C8.29004 65.2144 8.68445 64.3484 9.47327 63.6832C10.2621 63.0114 11.3436 62.6755 12.7179 62.6755C14.1045 62.6755 15.1891 63.0114 15.9718 63.6832C16.7606 64.3549 17.155 65.221 17.155 66.2814C17.155 67.3615 16.7575 68.2341 15.9625 68.8993C15.1675 69.5645 14.0798 69.8971 12.6994 69.8971ZM12.7179 64.7205C12.0154 64.7205 11.473 64.8687 11.091 65.165C10.715 65.4614 10.5271 65.8335 10.5271 66.2814C10.5271 66.7621 10.715 67.1507 11.091 67.4471C11.473 67.7369 12.0154 67.8817 12.7179 67.8817C13.4389 67.8817 13.9874 67.7336 14.3633 67.4372C14.7454 67.1408 14.9364 66.7555 14.9364 66.2814C14.9364 65.8137 14.7423 65.4383 14.3541 65.1551C13.9658 64.8654 13.4204 64.7205 12.7179 64.7205ZM10.4069 76.4765V70.8553H12.6994V74.4118H22.7568V76.4765H10.4069Z" fill="#004182"/>
<path d="M40.3758 64.7007V69.0672H38.0556V57.9435H40.3758V62.6162H43.0843V64.7007H40.3758ZM35.3656 68.5436C33.6031 67.6084 32.2781 66.4493 31.3907 65.0662C31.0641 65.7907 30.4909 66.5678 29.6713 67.3977C28.8517 68.2209 28.0783 68.8202 27.3511 69.1957L25.7057 67.457C26.9443 66.9564 27.9951 66.1562 28.8578 65.0564C29.7268 63.9499 30.1612 62.8072 30.1612 61.6284V60.8578H26.4821V58.7931H36.0681V60.8578H32.4815V61.5493C32.4815 62.6821 32.8851 63.7062 33.6924 64.6217C34.5059 65.5371 35.5536 66.2188 36.8354 66.6666L35.3656 68.5436ZM34.7185 76.921C32.8266 76.921 31.363 76.572 30.3276 75.8738C29.2923 75.1823 28.7746 74.2636 28.7746 73.1176C28.7746 71.9782 29.2985 71.0661 30.3461 70.3811C31.3938 69.6962 32.8512 69.3537 34.7185 69.3537C36.592 69.3537 38.0494 69.6962 39.0909 70.3811C40.1386 71.0595 40.6624 71.9716 40.6624 73.1176C40.6624 74.2702 40.1416 75.1922 39.1002 75.8837C38.0648 76.5753 36.6043 76.921 34.7185 76.921ZM34.7185 71.4184C32.3582 71.4184 31.1781 71.9848 31.1781 73.1176C31.1781 74.2767 32.3582 74.8563 34.7185 74.8563C37.0911 74.8563 38.2774 74.2767 38.2774 73.1176C38.2774 71.9848 37.0911 71.4184 34.7185 71.4184Z" fill="#004182"/>
<path d="M46.8558 60.4528V58.3683H59.5755V60.4528H46.8558ZM46.6247 65.6293V63.5646H49.0651L48.8987 60.9566H51.1912L51.3207 63.5646H55.0922L55.2401 60.9566H57.5326L57.3662 63.5646H59.7881V65.6293H46.6247ZM47.3827 76.595V70.1243H52.0417V68.8301H44.9423V66.7457H61.489V68.8301H54.3712V70.1243H59.0486V76.595H47.3827ZM56.7376 72.2087H49.6937V74.5303H56.7376V72.2087Z" fill="#004182"/>
<path d="M76.6121 67.5162V57.9435H78.8861V67.5162H76.6121ZM73.3952 67.1902C72.7235 66.9136 71.9932 66.4691 71.2044 65.8566C70.4218 65.2375 69.8271 64.6513 69.4203 64.0981C69.106 64.7304 68.5514 65.4219 67.7564 66.1727C66.9676 66.9169 66.1726 67.4866 65.3715 67.8817L63.763 66.2418C65.0387 65.794 66.0956 65.0794 66.9337 64.0981C67.7718 63.1168 68.1909 62.0564 68.1909 60.9171V60.4528H64.521V58.388H74.0978V60.4528H70.5204V60.838C70.5204 61.8852 70.924 62.8303 71.7313 63.6733C72.5448 64.5163 73.5678 65.1025 74.8003 65.4318L73.3952 67.1902ZM67.3589 76.6938V71.4975H76.6121V70.3416H67.3589V68.2571H78.8861V73.4041H69.6514V74.6192H79.3391V76.6938H67.3589Z" fill="#004182"/>
<path d="M97.3648 66.2814V71.9222H95.0353V57.9435H97.3648V64.1771H99.9993V66.2814H97.3648ZM93.1403 58.9511C93.1403 61.6382 93.0325 63.9269 92.8168 65.817L90.552 65.5898C90.6876 64.2595 90.7739 62.7414 90.8109 61.0356H83.9611V58.9511H93.1403ZM94.453 68.8894C90.78 69.1199 86.8359 69.2352 82.6207 69.2352L82.3896 67.1507C84.0474 67.1507 85.3477 67.1375 86.2906 67.1112V63.3275H88.62V67.0914C91.3193 67.0256 93.2174 66.9498 94.3143 66.8642L94.453 68.8894ZM85.2645 76.3579V70.2823H87.594V74.2734H97.5959V76.3579H85.2645Z" fill="#004182"/>
<path d="M114.364 77V57.9435H116.657V77H114.364ZM112.922 72.3668C111.838 72.5578 110.821 72.6698 109.872 72.7027C108.929 72.7356 106.566 72.7521 102.782 72.7521V64.7007H109.123V61.4999H102.819V59.4155H111.416V66.7654H105.065V70.6874C109.139 70.7269 111.659 70.6182 112.627 70.3614L112.922 72.3668Z" fill="#004182"/>
<path d="M133.296 77V57.9435H135.607V77H133.296ZM130.384 72.268C128.671 71.0101 127.306 69.4393 126.289 67.5557C125.322 69.5842 123.954 71.2637 122.185 72.594L120.382 70.8553C121.769 70.0913 122.906 68.9684 123.793 67.4866C124.687 65.9982 125.134 64.4768 125.134 62.9225V59.2179H127.463V62.8632C127.463 64.378 127.895 65.8467 128.757 67.2692C129.626 68.6918 130.711 69.7028 132.011 70.3021L130.384 72.268Z" fill="#004182"/>
<path d="M154.252 68.3461C152.983 67.9443 151.753 67.3219 150.564 66.4789C149.374 65.6359 148.472 64.7468 147.855 63.8116C147.245 64.7797 146.352 65.6886 145.175 66.5382C144.004 67.3878 142.765 67.997 141.458 68.3658L140.109 66.4394C142.229 65.9455 143.856 65.1189 144.99 63.9598C146.13 62.7941 146.7 61.6712 146.7 60.5911V59.1784H149.048V60.5911C149.048 61.6448 149.615 62.7644 150.749 63.9499C151.889 65.1288 153.506 65.9586 155.602 66.4394L154.252 68.3461ZM139.6 74.1648V72.1297H156.147V74.1648H139.6Z" fill="#004182"/>
<path d="M171.705 68.7313V57.9435H173.997V68.7313H171.705ZM168.146 68.7313V64.6019H165.9V62.6162H168.146V58.3288H170.438V68.7313H168.146ZM161.462 64.5624V66.1332C163.539 66.1332 165.231 66.0739 166.537 65.9553L166.713 68.0003C165.043 68.1452 162.538 68.2176 159.198 68.2176V58.8524H166.177V60.9368H161.462V62.5965H164.873V64.5624H161.462ZM162.618 76.595V69.5315H173.997V76.595H162.618ZM171.705 71.616H164.91V74.5303H171.705V71.616Z" fill="#004182"/>
</svg>
