<svg width="22" height="22" viewBox="0 0 22 22" fill="none" xmlns="http://www.w3.org/2000/svg">
<path d="M9.73958 11.964L8.10734 10.2771L7.21875 11.1955L9.73958 13.8008L14.7812 8.59023L13.8927 7.67188L9.73958 11.964Z" fill="#666666"/>
<path d="M11 20.6957L7.10784 18.5509C5.99825 17.9409 5.07035 17.03 4.42373 15.9162C3.77711 14.8023 3.43617 13.5276 3.4375 12.2286V3.76151C3.43784 3.41614 3.57074 3.08501 3.80704 2.84079C4.04334 2.59658 4.36374 2.45923 4.69792 2.45888L11 1.15625L17.3021 2.45888C17.6363 2.45923 17.9567 2.59658 18.193 2.84079C18.4293 3.08501 18.5622 3.41614 18.5625 3.76151V12.2286C18.5638 13.5276 18.2229 14.8023 17.5763 15.9162C16.9297 17.03 16.0018 17.9409 14.8922 18.5509L11 20.6957ZM4.69792 3.76151V12.2286C4.69687 13.2914 4.97591 14.3345 5.50507 15.2458C6.03423 16.1571 6.79354 16.9023 7.70149 17.4014L11 19.2192L14.2985 17.402C15.2066 16.9029 15.9659 16.1576 16.4951 15.2462C17.0243 14.3347 17.3032 13.2915 17.3021 12.2286V3.76151L11 2.45888L4.69792 3.76151Z" fill="#666666"/>
</svg>
