<svg width="273" height="42" viewBox="0 0 273 42" fill="none" xmlns="http://www.w3.org/2000/svg">
<path d="M39.8809 28.8652C41.9316 30.5645 44.2812 31.4141 46.9297 31.4141C48.5234 31.4141 49.7129 31.1387 50.498 30.5879C51.2832 30.0254 51.6758 29.293 51.6758 28.3906C51.6758 27.6055 51.3477 26.8848 50.6914 26.2285C50.0352 25.5723 48.4473 24.7051 45.9277 23.627C43.7832 22.666 42.2246 21.5879 41.252 20.3926C40.291 19.1855 39.8105 17.7734 39.8105 16.1562C39.8105 13.8242 40.7129 12.002 42.5176 10.6895C44.3223 9.36523 46.6895 8.70312 49.6191 8.70312C52.2441 8.70312 54.3125 9.03125 55.8242 9.6875V14.4863C54.1484 13.3379 52.127 12.7637 49.7598 12.7637C48.3652 12.7637 47.2344 13.0273 46.3672 13.5547C45.5117 14.082 45.084 14.8086 45.084 15.7344C45.084 16.4727 45.3828 17.1465 45.9805 17.7559C46.5781 18.3652 47.9785 19.1562 50.1816 20.1289C52.7129 21.2305 54.4707 22.3906 55.4551 23.6094C56.4395 24.8164 56.9316 26.2637 56.9316 27.9512C56.9316 30.3887 56.0586 32.252 54.3125 33.541C52.5781 34.8184 50.1406 35.457 47 35.457C44.082 35.457 41.709 34.9707 39.8809 33.998V28.8652ZM58.032 22.3965C58.032 18.3301 59.198 15.0312 61.5301 12.5C63.8738 9.96875 66.9852 8.70312 70.8641 8.70312C74.5438 8.70312 77.5027 9.93359 79.741 12.3945C81.991 14.8437 83.116 17.9902 83.116 21.834C83.116 26.2285 81.7742 29.6973 79.0906 32.2402L85.5945 38.4805H77.9129L74.4148 34.9297C73.1961 35.2812 71.8777 35.457 70.4598 35.457C66.7566 35.457 63.7566 34.2324 61.4598 31.7832C59.1746 29.334 58.032 26.2051 58.032 22.3965ZM63.3055 22.1152C63.3055 24.7402 63.95 26.8965 65.2391 28.584C66.5398 30.2598 68.3035 31.0977 70.5301 31.0977C72.8387 31.0977 74.6316 30.3008 75.909 28.707C77.198 27.1016 77.8426 24.9277 77.8426 22.1855C77.8426 19.3613 77.2215 17.1348 75.9793 15.5059C74.7371 13.877 72.9793 13.0625 70.7059 13.0625C68.409 13.0625 66.5984 13.918 65.2742 15.6289C63.9617 17.3281 63.3055 19.4902 63.3055 22.1152ZM109.423 35V18.9688C109.423 17.7969 109.494 16.0039 109.634 13.5898H109.529C109.236 15.0664 108.966 16.1211 108.72 16.7539L101.865 35H98.0504L91.107 16.9121C90.9313 16.4434 90.6617 15.3359 90.2984 13.5898H90.1754C90.3043 15.5 90.3688 17.5742 90.3688 19.8125V35H85.816V9.125H93.023L99.0699 25.2441C99.5738 26.5801 99.9078 27.7637 100.072 28.7949H100.195C100.453 27.7754 100.816 26.5801 101.285 25.209L107.384 9.125H114.38V35H109.423ZM117.555 28.8652C119.606 30.5645 121.955 31.4141 124.604 31.4141C126.198 31.4141 127.387 31.1387 128.172 30.5879C128.957 30.0254 129.35 29.293 129.35 28.3906C129.35 27.6055 129.022 26.8848 128.366 26.2285C127.709 25.5723 126.121 24.7051 123.602 23.627C121.457 22.666 119.899 21.5879 118.926 20.3926C117.965 19.1855 117.485 17.7734 117.485 16.1562C117.485 13.8242 118.387 12.002 120.192 10.6895C121.996 9.36523 124.364 8.70312 127.293 8.70312C129.918 8.70312 131.987 9.03125 133.498 9.6875V14.4863C131.823 13.3379 129.801 12.7637 127.434 12.7637C126.039 12.7637 124.909 13.0273 124.041 13.5547C123.186 14.082 122.758 14.8086 122.758 15.7344C122.758 16.4727 123.057 17.1465 123.655 17.7559C124.252 18.3652 125.653 19.1562 127.856 20.1289C130.387 21.2305 132.145 22.3906 133.129 23.6094C134.114 24.8164 134.606 26.2637 134.606 27.9512C134.606 30.3887 133.733 32.252 131.987 33.541C130.252 34.8184 127.815 35.457 124.674 35.457C121.756 35.457 119.383 34.9707 117.555 33.998V28.8652Z" fill="#004182"/>
<path d="M148.744 33.082H150.186V23.436H148.744V26.698H146.812V27.874H148.744V29.386H146.812V30.548H148.744V33.082ZM146.756 24.878H144.026V23.408H142.584V24.878H139.742V26.026H146.756V24.878ZM141.758 29.064C141.758 28.252 142.388 27.734 143.298 27.734C144.222 27.734 144.852 28.252 144.852 29.064C144.852 29.89 144.222 30.38 143.298 30.38C142.388 30.38 141.758 29.89 141.758 29.064ZM146.21 29.064C146.21 27.594 145.02 26.614 143.298 26.614C141.59 26.614 140.4 27.594 140.4 29.064C140.4 30.52 141.59 31.514 143.298 31.514C145.02 31.514 146.21 30.52 146.21 29.064ZM143.41 34.664V32.27H141.954V35.84H150.48V34.664H143.41ZM159.313 29.386C157.381 28.77 156.331 27.3 156.331 25.732V25.494H158.977V24.332H152.187V25.494H154.875V25.746C154.875 27.468 153.769 29.092 151.781 29.778L152.509 30.912C154.021 30.394 155.085 29.316 155.645 27.972C156.191 29.148 157.199 30.058 158.613 30.506L159.313 29.386ZM157.689 34.944C155.925 34.944 154.903 34.496 154.903 33.684C154.903 32.858 155.925 32.424 157.689 32.424C159.453 32.424 160.475 32.858 160.475 33.684C160.475 34.496 159.453 34.944 157.689 34.944ZM157.689 31.29C155.085 31.29 153.475 32.172 153.475 33.684C153.475 35.182 155.085 36.078 157.689 36.078C160.293 36.078 161.903 35.182 161.903 33.684C161.903 32.172 160.293 31.29 157.689 31.29ZM161.763 26.516V23.436H160.321V30.996H161.763V27.706H163.555V26.516H161.763ZM171.226 27.286H168.314V24.962H171.226V27.286ZM166.872 27.286H165.15V28.448H174.376V27.286H172.668V24.962H174.446V23.8H165.08V24.962H166.872V27.286ZM172.696 34.776H166.858V33.054H172.696V34.776ZM175.496 30.618V29.456H164.058V30.618H169.056V31.906H165.43V35.924H174.11V31.906H170.498V30.618H175.496ZM186.667 23.436H185.211V29.96H186.667V23.436ZM184.035 28.658C182.117 28.112 180.997 26.726 180.955 25.256H183.657V24.094H176.741V25.256H179.485C179.457 26.824 178.309 28.322 176.349 28.91L177.035 30.044C178.575 29.554 179.681 28.532 180.241 27.244C180.815 28.406 181.893 29.344 183.391 29.764L184.035 28.658ZM179.821 34.846V33.726H186.667V30.534H178.379V31.626H185.239V32.69H178.407V35.966H187.045V34.846H179.821ZM195.108 28.854C195.416 27.216 195.416 25.97 195.416 25.116V24.388H189.06V25.564H194.002C193.988 26.348 193.946 27.342 193.694 28.7L195.108 28.854ZM196.158 29.484C194.912 29.68 193.554 29.764 192.238 29.82V27.272H190.81V29.862C189.914 29.89 189.046 29.89 188.29 29.89L188.444 31.066C190.642 31.066 193.624 30.996 196.256 30.534L196.158 29.484ZM191.65 32.088H190.194V35.84H198.79V34.664H191.65V32.088ZM198.384 27.44V23.436H196.928V32.928H198.384V28.63H200.064V27.44H198.384ZM202.779 29.246H207.189V24.556H201.295V25.732H205.733V28.084H201.323V33.096H202.401C204.627 33.096 206.517 33.026 208.687 32.648L208.533 31.472C206.531 31.794 204.781 31.892 202.779 31.906V29.246ZM209.583 23.408V36.106H211.039V23.408H209.583ZM217.449 24.486H216.007V26.558C216.007 28.994 214.691 31.416 212.675 32.326L213.529 33.53C215.055 32.788 216.175 31.29 216.749 29.456C217.323 31.164 218.429 32.564 219.885 33.25L220.725 32.102C218.737 31.206 217.449 28.882 217.449 26.558V24.486ZM221.733 23.422V36.106H223.189V23.422H221.733ZM235.928 29.61C233.436 29.162 231.406 27.216 231.406 25.2V24.248H229.88V25.2C229.88 27.202 227.85 29.148 225.358 29.61L225.974 30.8C228.032 30.38 229.81 29.064 230.636 27.328C231.462 29.064 233.24 30.38 235.298 30.8L235.928 29.61ZM224.966 33.264V34.454H236.418V33.264H224.966ZM244.033 30.912H245.377V23.632H244.033V26.544H242.535V27.706H244.033V30.912ZM242.969 28.924C241.723 29.148 240.659 29.218 239.063 29.232V27.804H241.975V26.698H239.063V25.382H242.437V24.22H237.677V30.38H238.503C240.463 30.38 241.667 30.338 243.109 30.072L242.969 28.924ZM240.855 32.718H246.441V34.776H240.855V32.718ZM239.427 35.924H247.841V31.57H239.427V35.924ZM246.469 23.422V31.024H247.841V23.422H246.469Z" fill="#004182"/>
<g clip-path="url(#clip0_478_10595)">
<path d="M19.4142 21.5801L18.4206 23.3143C18.2352 23.6345 18.3478 24.0414 18.6657 24.2281L23.7727 27.1963L25.4287 24.3082L20.3217 21.34C20.0037 21.1465 19.5997 21.2599 19.4142 21.5801Z" fill="#004182"/>
<path d="M33.6689 29.0974L28.2969 25.9758L26.6409 28.864L32.0129 31.9856C32.3308 32.1723 32.7349 32.059 32.9204 31.7388L33.914 30.0046C34.0994 29.6844 33.9868 29.2775 33.6689 29.0974Z" fill="#004182"/>
<path d="M22.0704 30.1647C21.8915 30.4715 21.567 30.665 21.2093 30.665H11.2734C10.9224 30.665 10.5912 30.4715 10.4123 30.1647L5.44442 21.5003C5.26558 21.1934 5.26558 20.8066 5.44442 20.4997L10.4123 11.8353C10.5912 11.5285 10.9158 11.335 11.2734 11.335H21.2093C21.5603 11.335 21.8915 11.5285 22.0704 11.8353L27.0383 20.4997C27.2171 20.8066 27.2171 21.1934 27.0383 21.5003L25.4287 24.3017L28.2968 25.9692L29.9064 23.1678C30.6748 21.8338 30.6748 20.1729 29.9064 18.8322L24.9385 10.1678C24.1702 8.83376 22.7394 8 21.2093 8H11.2734C9.7367 8 8.31256 8.83376 7.54419 10.1678L2.57628 18.8322C1.80791 20.1729 1.80791 21.8338 2.57628 23.1678L7.54419 31.8322C8.31256 33.1729 9.7367 34 11.2734 34H21.2093C22.746 34 24.1702 33.1662 24.9385 31.8322L26.6409 28.8574L23.7727 27.1898L22.0704 30.1647Z" fill="#004182"/>
</g>
<defs>
<clipPath id="clip0_478_10595">
<rect width="32" height="26" fill="white" transform="translate(0 8)"/>
</clipPath>
</defs>
</svg>
