<svg width="205" height="30" viewBox="0 0 205 30" fill="none" xmlns="http://www.w3.org/2000/svg">
<path d="M1.09717 20.4214C2.29346 21.4126 3.66406 21.9082 5.20898 21.9082C6.13867 21.9082 6.83252 21.7476 7.29053 21.4263C7.74854 21.0981 7.97754 20.6709 7.97754 20.1445C7.97754 19.6865 7.78613 19.2661 7.40332 18.8833C7.02051 18.5005 6.09424 17.9946 4.62451 17.3657C3.37354 16.8052 2.46436 16.1763 1.89697 15.479C1.33643 14.7749 1.05615 13.9512 1.05615 13.0078C1.05615 11.6475 1.58252 10.5845 2.63525 9.81885C3.68799 9.04639 5.06885 8.66016 6.77783 8.66016C8.30908 8.66016 9.51562 8.85156 10.3975 9.23438V12.0337C9.41992 11.3638 8.24072 11.0288 6.85986 11.0288C6.04639 11.0288 5.38672 11.1826 4.88086 11.4902C4.38184 11.7979 4.13232 12.2217 4.13232 12.7617C4.13232 13.1924 4.30664 13.5854 4.65527 13.9409C5.00391 14.2964 5.8208 14.7578 7.10596 15.3252C8.58252 15.9678 9.60791 16.6445 10.1821 17.3555C10.7563 18.0596 11.0435 18.9038 11.0435 19.8882C11.0435 21.3101 10.5342 22.397 9.51562 23.1489C8.50391 23.894 7.08203 24.2666 5.25 24.2666C3.54785 24.2666 2.16357 23.9829 1.09717 23.4155V20.4214ZM11.6854 16.6479C11.6854 14.2759 12.3655 12.3516 13.7259 10.875C15.0931 9.39844 16.908 8.66016 19.1707 8.66016C21.3172 8.66016 23.0433 9.37793 24.3489 10.8135C25.6614 12.2422 26.3177 14.0776 26.3177 16.3198C26.3177 18.8833 25.535 20.9067 23.9695 22.3901L27.7635 26.0303H23.2825L21.242 23.959C20.5311 24.1641 19.762 24.2666 18.9349 24.2666C16.7747 24.2666 15.0247 23.5522 13.6849 22.1235C12.3519 20.6948 11.6854 18.8696 11.6854 16.6479ZM14.7615 16.4839C14.7615 18.0151 15.1375 19.2729 15.8895 20.2573C16.6482 21.2349 17.6771 21.7236 18.9759 21.7236C20.3226 21.7236 21.3685 21.2588 22.1136 20.3291C22.8655 19.3926 23.2415 18.1245 23.2415 16.5249C23.2415 14.8774 22.8792 13.5786 22.1546 12.6284C21.43 11.6782 20.4046 11.2031 19.0784 11.2031C17.7386 11.2031 16.6824 11.7021 15.91 12.7002C15.1443 13.6914 14.7615 14.9526 14.7615 16.4839ZM41.6637 24V14.6484C41.6637 13.9648 41.7047 12.9189 41.7867 11.5107H41.7252C41.5543 12.3721 41.3971 12.9873 41.2535 13.3564L37.2545 24H35.0294L30.9791 13.4487C30.8766 13.1753 30.7193 12.5293 30.5074 11.5107H30.4356C30.5108 12.625 30.5484 13.835 30.5484 15.1406V24H27.8927V8.90625H32.0968L35.6241 18.3091C35.9181 19.0884 36.1129 19.7788 36.2086 20.3804H36.2804C36.4308 19.7856 36.6427 19.0884 36.9161 18.2886L40.4742 8.90625H44.5553V24H41.6637ZM46.4071 20.4214C47.6034 21.4126 48.974 21.9082 50.5189 21.9082C51.4486 21.9082 52.1425 21.7476 52.6005 21.4263C53.0585 21.0981 53.2875 20.6709 53.2875 20.1445C53.2875 19.6865 53.0961 19.2661 52.7133 18.8833C52.3305 18.5005 51.4042 17.9946 49.9345 17.3657C48.6835 16.8052 47.7743 16.1763 47.2069 15.479C46.6464 14.7749 46.3661 13.9512 46.3661 13.0078C46.3661 11.6475 46.8925 10.5845 47.9452 9.81885C48.9979 9.04639 50.3788 8.66016 52.0878 8.66016C53.619 8.66016 54.8256 8.85156 55.7074 9.23438V12.0337C54.7299 11.3638 53.5507 11.0288 52.1698 11.0288C51.3563 11.0288 50.6967 11.1826 50.1908 11.4902C49.6918 11.7979 49.4423 12.2217 49.4423 12.7617C49.4423 13.1924 49.6166 13.5854 49.9652 13.9409C50.3139 14.2964 51.1308 14.7578 52.4159 15.3252C53.8925 15.9678 54.9179 16.6445 55.4921 17.3555C56.0663 18.0596 56.3534 18.9038 56.3534 19.8882C56.3534 21.3101 55.8441 22.397 54.8256 23.1489C53.8139 23.894 52.392 24.2666 50.56 24.2666C48.8578 24.2666 47.4735 23.9829 46.4071 23.4155V20.4214Z" fill="#004182"/>
<path d="M75.528 20.534H77.382V8.132H75.528V12.326H73.044V13.838H75.528V15.782H73.044V17.276H75.528V20.534ZM72.972 9.986H69.462V8.114H67.608V9.986H63.954V11.462H72.972V9.986ZM66.546 15.368C66.546 14.324 67.356 13.658 68.526 13.658C69.714 13.658 70.524 14.324 70.524 15.368C70.524 16.43 69.714 17.06 68.526 17.06C67.356 17.06 66.546 16.43 66.546 15.368ZM72.27 15.368C72.27 13.478 70.74 12.218 68.526 12.218C66.33 12.218 64.8 13.478 64.8 15.368C64.8 17.24 66.33 18.518 68.526 18.518C70.74 18.518 72.27 17.24 72.27 15.368ZM68.67 22.568V19.49H66.798V24.08H77.76V22.568H68.67ZM89.1166 15.782C86.6326 14.99 85.2826 13.1 85.2826 11.084V10.778H88.6846V9.284H79.9546V10.778H83.4106V11.102C83.4106 13.316 81.9886 15.404 79.4326 16.286L80.3686 17.744C82.3126 17.078 83.6806 15.692 84.4006 13.964C85.1026 15.476 86.3986 16.646 88.2166 17.222L89.1166 15.782ZM87.0286 22.928C84.7606 22.928 83.4466 22.352 83.4466 21.308C83.4466 20.246 84.7606 19.688 87.0286 19.688C89.2966 19.688 90.6106 20.246 90.6106 21.308C90.6106 22.352 89.2966 22.928 87.0286 22.928ZM87.0286 18.23C83.6806 18.23 81.6106 19.364 81.6106 21.308C81.6106 23.234 83.6806 24.386 87.0286 24.386C90.3766 24.386 92.4466 23.234 92.4466 21.308C92.4466 19.364 90.3766 18.23 87.0286 18.23ZM92.2666 12.092V8.132H90.4126V17.852H92.2666V13.622H94.5706V12.092H92.2666ZM104.433 13.082H100.689V10.094H104.433V13.082ZM98.8352 13.082H96.6212V14.576H108.483V13.082H106.287V10.094H108.573V8.6H96.5312V10.094H98.8352V13.082ZM106.323 22.712H98.8172V20.498H106.323V22.712ZM109.923 17.366V15.872H95.2172V17.366H101.643V19.022H96.9812V24.188H108.141V19.022H103.497V17.366H109.923ZM124.286 8.132H122.414V16.52H124.286V8.132ZM120.902 14.846C118.436 14.144 116.996 12.362 116.942 10.472H120.416V8.978H111.524V10.472H115.052C115.016 12.488 113.54 14.414 111.02 15.17L111.902 16.628C113.882 15.998 115.304 14.684 116.024 13.028C116.762 14.522 118.148 15.728 120.074 16.268L120.902 14.846ZM115.484 22.802V21.362H124.286V17.258H113.63V18.662H122.45V20.03H113.666V24.242H124.772V22.802H115.484ZM135.138 15.098C135.534 12.992 135.534 11.39 135.534 10.292V9.356H127.362V10.868H133.716C133.698 11.876 133.644 13.154 133.32 14.9L135.138 15.098ZM136.488 15.908C134.886 16.16 133.14 16.268 131.448 16.34V13.064H129.612V16.394C128.46 16.43 127.344 16.43 126.372 16.43L126.57 17.942C129.396 17.942 133.23 17.852 136.614 17.258L136.488 15.908ZM130.692 19.256H128.82V24.08H139.872V22.568H130.692V19.256ZM139.35 13.28V8.132H137.478V20.336H139.35V14.81H141.51V13.28H139.35ZM145.001 15.602H150.671V9.572H143.093V11.084H148.799V14.108H143.129V20.552H144.515C147.377 20.552 149.807 20.462 152.597 19.976L152.399 18.464C149.825 18.878 147.575 19.004 145.001 19.022V15.602ZM153.749 8.096V24.422H155.621V8.096H153.749ZM163.864 9.482H162.01V12.146C162.01 15.278 160.318 18.392 157.726 19.562L158.824 21.11C160.786 20.156 162.226 18.23 162.964 15.872C163.702 18.068 165.124 19.868 166.996 20.75L168.076 19.274C165.52 18.122 163.864 15.134 163.864 12.146V9.482ZM169.372 8.114V24.422H171.244V8.114H169.372ZM187.622 16.07C184.418 15.494 181.808 12.992 181.808 10.4V9.176H179.846V10.4C179.846 12.974 177.236 15.476 174.032 16.07L174.824 17.6C177.47 17.06 179.756 15.368 180.818 13.136C181.88 15.368 184.166 17.06 186.812 17.6L187.622 16.07ZM173.528 20.768V22.298H188.252V20.768H173.528ZM198.043 17.744H199.771V8.384H198.043V12.128H196.117V13.622H198.043V17.744ZM196.675 15.188C195.073 15.476 193.705 15.566 191.653 15.584V13.748H195.397V12.326H191.653V10.634H195.991V9.14H189.871V17.06H190.933C193.453 17.06 195.001 17.006 196.855 16.664L196.675 15.188ZM193.957 20.066H201.139V22.712H193.957V20.066ZM192.121 24.188H202.939V18.59H192.121V24.188ZM201.175 8.114V17.888H202.939V8.114H201.175Z" fill="#004182"/>
</svg>
