<svg width="201" height="93" viewBox="0 0 201 93" fill="none" xmlns="http://www.w3.org/2000/svg">
<path d="M35.1172 72.3906V70.8203H38.75V69.125H40.7188V70.8203H44.3516V72.3906H35.1172ZM43.8203 77.9609V76.375H45.8906V74.9062H43.8203V73.3203H45.8906V69.3359H47.8438V80.2344H45.8906V77.9609H43.8203ZM39.7578 78.7891C38.6068 78.7891 37.6979 78.526 37.0312 78C36.3646 77.4688 36.0312 76.7786 36.0312 75.9297C36.0312 75.0859 36.3646 74.401 37.0312 73.875C37.6979 73.3438 38.612 73.0781 39.7734 73.0781C40.9453 73.0781 41.862 73.3438 42.5234 73.875C43.1901 74.4062 43.5234 75.0911 43.5234 75.9297C43.5234 76.7839 43.1875 77.474 42.5156 78C41.8438 78.526 40.9245 78.7891 39.7578 78.7891ZM39.7734 74.6953C39.1797 74.6953 38.7214 74.8125 38.3984 75.0469C38.0807 75.2812 37.9219 75.5755 37.9219 75.9297C37.9219 76.3099 38.0807 76.6172 38.3984 76.8516C38.7214 77.0807 39.1797 77.1953 39.7734 77.1953C40.3828 77.1953 40.8464 77.0781 41.1641 76.8438C41.487 76.6094 41.6484 76.3047 41.6484 75.9297C41.6484 75.5599 41.4844 75.263 41.1562 75.0391C40.8281 74.8099 40.3672 74.6953 39.7734 74.6953ZM37.8203 83.9922V79.5469H39.7578V82.3594H48.2578V83.9922H37.8203ZM63.1484 74.6797V78.1328H61.1875V69.3359H63.1484V73.0312H65.4375V74.6797H63.1484ZM58.9141 77.7188C57.4245 76.9792 56.3047 76.0625 55.5547 74.9688C55.2786 75.5417 54.7943 76.1562 54.1016 76.8125C53.4089 77.4635 52.7552 77.9375 52.1406 78.2344L50.75 76.8594C51.7969 76.4635 52.6849 75.8307 53.4141 74.9609C54.1484 74.0859 54.5156 73.1823 54.5156 72.25V71.6406H51.4062V70.0078H59.5078V71.6406H56.4766V72.1875C56.4766 73.0833 56.8177 73.8932 57.5 74.6172C58.1875 75.3411 59.0729 75.8802 60.1562 76.2344L58.9141 77.7188ZM58.3672 84.3438C56.7682 84.3438 55.5312 84.0677 54.6562 83.5156C53.7812 82.9688 53.3438 82.2422 53.3438 81.3359C53.3438 80.4349 53.7865 79.7135 54.6719 79.1719C55.5573 78.6302 56.7891 78.3594 58.3672 78.3594C59.9505 78.3594 61.1823 78.6302 62.0625 79.1719C62.9479 79.7083 63.3906 80.4297 63.3906 81.3359C63.3906 82.2474 62.9505 82.9766 62.0703 83.5234C61.1953 84.0703 59.9609 84.3438 58.3672 84.3438ZM58.3672 79.9922C56.3724 79.9922 55.375 80.4401 55.375 81.3359C55.375 82.2526 56.3724 82.7109 58.3672 82.7109C60.3724 82.7109 61.375 82.2526 61.375 81.3359C61.375 80.4401 60.3724 79.9922 58.3672 79.9922ZM68.625 71.3203V69.6719H79.375V71.3203H68.625ZM68.4297 75.4141V73.7812H70.4922L70.3516 71.7188H72.2891L72.3984 73.7812H75.5859L75.7109 71.7188H77.6484L77.5078 73.7812H79.5547V75.4141H68.4297ZM69.0703 84.0859V78.9688H73.0078V77.9453H67.0078V76.2969H80.9922V77.9453H74.9766V78.9688H78.9297V84.0859H69.0703ZM76.9766 80.6172H71.0234V82.4531H76.9766V80.6172ZM93.7734 76.9062V69.3359H95.6953V76.9062H93.7734ZM91.0547 76.6484C90.487 76.4297 89.8698 76.0781 89.2031 75.5938C88.5417 75.1042 88.0391 74.6406 87.6953 74.2031C87.4297 74.7031 86.9609 75.25 86.2891 75.8438C85.6224 76.4323 84.9505 76.8828 84.2734 77.1953L82.9141 75.8984C83.9922 75.5443 84.8854 74.9792 85.5938 74.2031C86.3021 73.4271 86.6562 72.5885 86.6562 71.6875V71.3203H83.5547V69.6875H91.6484V71.3203H88.625V71.625C88.625 72.4531 88.9661 73.2005 89.6484 73.8672C90.3359 74.5339 91.2005 74.9974 92.2422 75.2578L91.0547 76.6484ZM85.9531 84.1641V80.0547H93.7734V79.1406H85.9531V77.4922H95.6953V81.5625H87.8906V82.5234H96.0781V84.1641H85.9531ZM111.312 75.9297V80.3906H109.344V69.3359H111.312V74.2656H113.539V75.9297H111.312ZM107.742 70.1328C107.742 72.2578 107.651 74.0677 107.469 75.5625L105.555 75.3828C105.669 74.3307 105.742 73.1302 105.773 71.7812H99.9844V70.1328H107.742ZM108.852 77.9922C105.747 78.1745 102.414 78.2656 98.8516 78.2656L98.6562 76.6172C100.057 76.6172 101.156 76.6068 101.953 76.5859V73.5938H103.922V76.5703C106.203 76.5182 107.807 76.4583 108.734 76.3906L108.852 77.9922ZM101.086 83.8984V79.0938H103.055V82.25H111.508V83.8984H101.086ZM125.68 84.4062V69.3359H127.617V84.4062H125.68ZM124.461 80.7422C123.544 80.8932 122.685 80.9818 121.883 81.0078C121.086 81.0339 119.089 81.0469 115.891 81.0469V74.6797H121.25V72.1484H115.922V70.5H123.188V76.3125H117.82V79.4141C121.263 79.4453 123.393 79.3594 124.211 79.1562L124.461 80.7422ZM141.68 84.4062V69.3359H143.633V84.4062H141.68ZM139.219 80.6641C137.771 79.6693 136.617 78.4271 135.758 76.9375C134.94 78.5417 133.784 79.8698 132.289 80.9219L130.766 79.5469C131.938 78.9427 132.898 78.0547 133.648 76.8828C134.404 75.7057 134.781 74.5026 134.781 73.2734V70.3438H136.75V73.2266C136.75 74.4245 137.115 75.5859 137.844 76.7109C138.578 77.8359 139.495 78.6354 140.594 79.1094L139.219 80.6641ZM159.391 77.5625C158.318 77.2448 157.279 76.7526 156.273 76.0859C155.268 75.4193 154.505 74.7161 153.984 73.9766C153.469 74.7422 152.714 75.4609 151.719 76.1328C150.729 76.8047 149.682 77.2865 148.578 77.5781L147.438 76.0547C149.229 75.6641 150.604 75.0104 151.562 74.0938C152.526 73.1719 153.008 72.2839 153.008 71.4297V70.3125H154.992V71.4297C154.992 72.263 155.471 73.1484 156.43 74.0859C157.393 75.0182 158.76 75.6745 160.531 76.0547L159.391 77.5625ZM147.008 82.1641V80.5547H160.992V82.1641H147.008ZM174.141 77.8672V69.3359H176.078V77.8672H174.141ZM171.133 77.8672V74.6016H169.234V73.0312H171.133V69.6406H173.07V77.8672H171.133ZM165.484 74.5703V75.8125C167.24 75.8125 168.669 75.7656 169.773 75.6719L169.922 77.2891C168.51 77.4036 166.393 77.4609 163.57 77.4609V70.0547H169.469V71.7031H165.484V73.0156H168.367V74.5703H165.484ZM166.461 84.0859V78.5H176.078V84.0859H166.461ZM174.141 80.1484H168.398V82.4531H174.141V80.1484Z" fill="#004182"/>
<path d="M59.9922 47.1387C62.9544 49.5931 66.3483 50.8203 70.1738 50.8203C72.4759 50.8203 74.194 50.4225 75.3281 49.627C76.4622 48.8145 77.0293 47.7565 77.0293 46.4531C77.0293 45.319 76.5553 44.278 75.6074 43.3301C74.6595 42.3822 72.3659 41.1296 68.7266 39.5723C65.6289 38.1842 63.3776 36.627 61.9727 34.9004C60.5846 33.1569 59.8906 31.1172 59.8906 28.7812C59.8906 25.4128 61.194 22.7806 63.8008 20.8848C66.4076 18.972 69.8268 18.0156 74.0586 18.0156C77.8503 18.0156 80.8379 18.4896 83.0215 19.4375V26.3691C80.6009 24.7103 77.681 23.8809 74.2617 23.8809C72.2474 23.8809 70.6139 24.2617 69.3613 25.0234C68.1257 25.7852 67.5078 26.8346 67.5078 28.1719C67.5078 29.2383 67.9395 30.2116 68.8027 31.0918C69.666 31.972 71.6888 33.1146 74.8711 34.5195C78.5273 36.1107 81.0664 37.7865 82.4883 39.5469C83.9102 41.2904 84.6211 43.3809 84.6211 45.8184C84.6211 49.3392 83.36 52.0306 80.8379 53.8926C78.3327 55.7376 74.8118 56.6602 70.2754 56.6602C66.0605 56.6602 62.6328 55.9577 59.9922 54.5527V47.1387ZM86.8105 37.7949C86.8105 31.9212 88.4948 27.1562 91.8633 23.5C95.2487 19.8438 99.7428 18.0156 105.346 18.0156C110.661 18.0156 114.935 19.793 118.168 23.3477C121.418 26.8854 123.043 31.4303 123.043 36.9824C123.043 43.3301 121.105 48.3405 117.229 52.0137L126.623 61.0273H115.527L110.475 55.8984C108.714 56.4062 106.81 56.6602 104.762 56.6602C99.4128 56.6602 95.0794 54.8913 91.7617 51.3535C88.4609 47.8158 86.8105 43.2962 86.8105 37.7949ZM94.4277 37.3887C94.4277 41.1803 95.3587 44.2949 97.2207 46.7324C99.0996 49.153 101.647 50.3633 104.863 50.3633C108.198 50.3633 110.788 49.2122 112.633 46.9102C114.495 44.5911 115.426 41.4512 115.426 37.4902C115.426 33.4108 114.529 30.1947 112.734 27.8418C110.94 25.4889 108.401 24.3125 105.117 24.3125C101.799 24.3125 99.1842 25.5482 97.2715 28.0195C95.3757 30.474 94.4277 33.597 94.4277 37.3887ZM161.643 56V32.8438C161.643 31.151 161.744 28.5612 161.947 25.0742H161.795C161.372 27.207 160.982 28.7305 160.627 29.6445L150.725 56H145.215L135.186 29.873C134.932 29.196 134.542 27.5964 134.018 25.0742H133.84C134.026 27.8333 134.119 30.8294 134.119 34.0625V56H127.543V18.625H137.953L146.688 41.9082C147.415 43.8379 147.898 45.5475 148.135 47.0371H148.312C148.685 45.5645 149.21 43.8379 149.887 41.8574L158.697 18.625H168.803V56H161.643ZM173.988 47.1387C176.951 49.5931 180.344 50.8203 184.17 50.8203C186.472 50.8203 188.19 50.4225 189.324 49.627C190.458 48.8145 191.025 47.7565 191.025 46.4531C191.025 45.319 190.551 44.278 189.604 43.3301C188.656 42.3822 186.362 41.1296 182.723 39.5723C179.625 38.1842 177.374 36.627 175.969 34.9004C174.581 33.1569 173.887 31.1172 173.887 28.7812C173.887 25.4128 175.19 22.7806 177.797 20.8848C180.404 18.972 183.823 18.0156 188.055 18.0156C191.846 18.0156 194.834 18.4896 197.018 19.4375V26.3691C194.597 24.7103 191.677 23.8809 188.258 23.8809C186.243 23.8809 184.61 24.2617 183.357 25.0234C182.122 25.7852 181.504 26.8346 181.504 28.1719C181.504 29.2383 181.936 30.2116 182.799 31.0918C183.662 31.972 185.685 33.1146 188.867 34.5195C192.523 36.1107 195.062 37.7865 196.484 39.5469C197.906 41.2904 198.617 43.3809 198.617 45.8184C198.617 49.3392 197.356 52.0306 194.834 53.8926C192.329 55.7376 188.808 56.6602 184.271 56.6602C180.057 56.6602 176.629 55.9577 173.988 54.5527V47.1387Z" fill="#004182"/>
<path d="M29.7752 40.4598L28.1251 43.3279C27.817 43.8574 28.0041 44.5303 28.5321 44.8392L37.0139 49.7481L39.7642 44.9716L31.2824 40.0627C30.7543 39.7427 30.0833 39.9303 29.7752 40.4598Z" fill="#004182"/>
<path d="M34.1865 54.657C33.8894 55.1644 33.3504 55.4844 32.7563 55.4844H16.2547C15.6717 55.4844 15.1216 55.1644 14.8246 54.657L6.57382 40.3273C6.27679 39.8199 6.27679 39.1801 6.57382 38.6727L14.8246 24.343C15.1216 23.8356 15.6607 23.5156 16.2547 23.5156H32.7563C33.3394 23.5156 33.8894 23.8356 34.1865 24.343L42.4372 38.6727C42.7343 39.1801 42.7343 39.8199 42.4372 40.3273L39.764 44.9605L44.5274 47.7183L47.2007 43.0852C48.4768 40.8789 48.4768 38.1321 47.2007 35.9148L38.9499 21.5852C37.6738 19.3789 35.2976 18 32.7563 18H16.2547C13.7025 18 11.3373 19.3789 10.0611 21.5852L1.81036 35.9148C0.534241 38.1321 0.534241 40.8789 1.81036 43.0852L10.0611 57.4148C11.3373 59.6321 13.7025 61 16.2547 61H32.7563C35.3086 61 37.6738 59.6211 38.9499 57.4148L41.7772 52.4949L37.0137 49.737L34.1865 54.657Z" fill="#004182"/>
<path d="M53.4495 52.8921L44.5276 47.7295L41.7773 52.506L50.6992 57.6687C51.2272 57.9776 51.8983 57.79 52.2063 57.2605L53.8565 54.3924C54.1645 53.8629 53.9775 53.19 53.4495 52.8921Z" fill="#004182"/>
</svg>
